<mxfile host="app.diagrams.net" modified="2024-02-10T14:44:06.747Z" agent="Mozilla/5.0 (Macintosh; Intel Mac OS X 10_15_7) AppleWebKit/537.36 (KHTML, like Gecko) Chrome/121.0.0.0 Safari/537.36" version="22.1.21" etag="OjV04OmyEoNX1OhdClhK" type="github">
  <diagram name="PÃ¡gina-1" id="Z-O44C4FF3SOFTt92Qq4">
    <mxGraphModel>
      <root>
        <mxCell id="0" />
        <mxCell id="1" parent="0" />
      </root>
    </mxGraphModel>
  </diagram>
</mxfile>
